<svg width="54" height="54" viewBox="0 0 54 54" fill="none" xmlns="http://www.w3.org/2000/svg">
<path d="M27 34.1998C30.9765 34.1998 34.2 30.9763 34.2 26.9998C34.2 23.0234 30.9765 19.7998 27 19.7998C23.0236 19.7998 19.8 23.0234 19.8 26.9998C19.8 30.9763 23.0236 34.1998 27 34.1998Z" fill="#79C6EE"/>
<path d="M20.25 4.5L16.1325 9H9C6.525 9 4.5 11.025 4.5 13.5V40.5C4.5 42.975 6.525 45 9 45H45C47.475 45 49.5 42.975 49.5 40.5V13.5C49.5 11.025 47.475 9 45 9H37.8675L33.75 4.5H20.25ZM27 38.25C20.79 38.25 15.75 33.21 15.75 27C15.75 20.79 20.79 15.75 27 15.75C33.21 15.75 38.25 20.79 38.25 27C38.25 33.21 33.21 38.25 27 38.25Z" fill="#79C6EE"/>
</svg>
