<svg width="23" height="21" viewBox="0 0 23 21" fill="none" xmlns="http://www.w3.org/2000/svg">
<path d="M14.72 1.88168L22.4262 14.903C23.5337 16.7731 22.9897 19.2337 21.2107 20.398C20.6136 20.7902 19.9175 20.9993 19.2062 21H3.79271C1.69855 21 0 19.215 0 17.0111C0 16.2656 0.198951 15.5365 0.572702 14.903L8.28002 1.88168C9.38633 0.0115015 11.7254 -0.561336 13.5045 0.603006C13.9967 0.925009 14.413 1.36251 14.72 1.88168ZM11.5 16.3333C11.805 16.3333 12.0975 16.2104 12.3132 15.9916C12.5289 15.7728 12.65 15.476 12.65 15.1666C12.65 14.8572 12.5289 14.5604 12.3132 14.3417C12.0975 14.1229 11.805 13.9999 11.5 13.9999C11.195 13.9999 10.9025 14.1229 10.6869 14.3417C10.4712 14.5604 10.35 14.8572 10.35 15.1666C10.35 15.476 10.4712 15.7728 10.6869 15.9916C10.9025 16.2104 11.195 16.3333 11.5 16.3333ZM11.5 5.83321C11.195 5.83321 10.9025 5.95613 10.6869 6.17493C10.4712 6.39372 10.35 6.69047 10.35 6.99989V11.6666C10.35 11.976 10.4712 12.2728 10.6869 12.4916C10.9025 12.7104 11.195 12.8333 11.5 12.8333C11.805 12.8333 12.0975 12.7104 12.3132 12.4916C12.5289 12.2728 12.65 11.976 12.65 11.6666V6.99989C12.65 6.69047 12.5289 6.39372 12.3132 6.17493C12.0975 5.95613 11.805 5.83321 11.5 5.83321Z" fill="#C9CB52"/>
</svg>
