<svg width="16" height="10" viewBox="0 0 16 10" fill="none" xmlns="http://www.w3.org/2000/svg">
<path d="M1.16147 1.18979C1.36293 0.988386 1.63614 0.875244 1.92101 0.875244C2.20588 0.875244 2.47909 0.988386 2.68055 1.18979L7.99841 6.50765L13.3163 1.18979C13.5189 0.994094 13.7903 0.885809 14.0719 0.888256C14.3536 0.890704 14.6231 1.00369 14.8223 1.20288C15.0215 1.40206 15.1344 1.67151 15.1369 1.9532C15.1393 2.23488 15.031 2.50625 14.8354 2.70887L8.75795 8.78627C8.55649 8.98767 8.28328 9.10082 7.99841 9.10082C7.71354 9.10082 7.44033 8.98767 7.23887 8.78627L1.16147 2.70887C0.960066 2.50741 0.846924 2.2342 0.846924 1.94933C0.846924 1.66446 0.960066 1.39125 1.16147 1.18979Z" fill="#484848"/>
</svg>
