<svg width="235" height="258" viewBox="0 0 235 258" fill="none" xmlns="http://www.w3.org/2000/svg">
<g clip-path="url(#clip0_32_293)">
<path d="M38.3415 172.147C34.1492 173.716 29.7848 174.928 25.8957 177.146C22.0067 179.363 18.541 182.813 17.5726 187.185C17.3399 188.237 17.2559 189.33 17.4107 190.395C17.6887 192.308 18.7276 194.052 20.0658 195.446C21.1915 196.619 22.6048 197.607 24.2133 197.838C25.9184 198.083 27.6396 197.455 29.1232 196.579C34.6134 193.333 37.4042 187.078 41.1781 181.938C44.3303 177.647 48.293 174.021 51.7039 169.933C52.337 169.176 52.9756 168.346 53.0868 167.366C53.1392 166.922 52.9865 166.36 52.5475 166.271C52.4113 166.244 52.2714 166.267 52.139 166.303C50.9319 166.615 50.0946 167.678 49.3431 168.674C43.5673 176.324 37.4963 183.751 31.152 190.936C30.1847 192.031 29.1856 193.142 27.9025 193.84C26.242 194.747 24.1426 194.859 22.4371 194.034C20.7347 193.208 19.5021 191.431 19.4301 189.541C19.3734 188.027 20.0074 186.575 20.7273 185.239C21.5246 183.76 22.4455 182.34 23.5879 181.107C26.238 178.245 29.9207 176.565 33.6208 175.333C37.3228 174.101 41.1581 173.24 44.7208 171.655C46.7096 170.771 48.6503 169.629 50.133 168.011C51.3124 166.725 52.6597 163.791 49.9882 165.914C46.5202 168.668 42.468 170.602 38.3396 172.146L38.3415 172.147Z" fill="#FF5310"/>
<path d="M60.8557 177.982C60.8557 177.982 56.6783 181.681 46.3623 170.038C35.6572 157.955 40.2238 154.696 40.2238 154.696L91.5638 109.215L112.195 132.503L60.8545 177.984L60.8557 177.982Z" fill="#47D658"/>
<path d="M112.094 132.588C110.65 133.87 104.86 129.692 99.1625 123.263C93.4658 116.832 90.0188 110.582 91.462 109.302C92.9065 108.021 98.6956 112.198 104.394 118.627C110.09 125.058 113.537 131.309 112.094 132.588Z" fill="#3DB248"/>
<path d="M52.7891 153.704L56.2661 155.02L53.1079 156.98L52.9288 160.694L50.0881 158.294L46.5019 159.274L47.907 155.831L45.8656 152.721L49.5754 152.992L51.9014 150.09L52.7891 153.704Z" fill="#FFDF24"/>
<path d="M76.9999 154.187L80.4787 155.504L77.3174 157.465L77.1414 161.178L74.2995 158.78L70.7114 159.759L72.1178 156.314L70.0771 153.207L73.7849 153.478L76.1128 150.577L76.9999 154.187Z" fill="#FFDF24"/>
<path d="M95.7118 88.604L100.592 90.45L96.1573 93.2L95.9094 98.4129L91.9237 95.0448L86.8904 96.4199L88.8611 91.589L85.9976 87.2267L91.2014 87.6069L94.4667 83.5384L95.7118 88.604Z" fill="#FF5310"/>
<path d="M169.274 113.542L174.154 115.388L169.72 118.138L169.472 123.351L165.486 119.983L160.453 121.358L162.423 116.527L159.561 112.163L164.766 112.546L168.03 108.474L169.274 113.542Z" fill="#FF5310"/>
<path d="M174.251 54.4009L179.13 56.2487L174.696 58.9969L174.448 64.2098L170.463 60.8416L165.429 62.2167L167.4 57.3858L164.537 53.0235L169.74 53.4038L173.006 49.3353L174.251 54.4009Z" fill="#FF5310"/>
<path d="M126.427 144.974L131.306 146.822L126.871 149.572L126.624 154.783L122.637 151.417L117.605 152.79L119.576 147.959L116.712 143.597L121.918 143.978L125.182 139.909L126.427 144.974Z" fill="#FF5310"/>
<path d="M132.576 105.26L137.456 107.106L133.021 109.856L132.773 115.069L128.788 111.701L123.754 113.076L125.725 108.245L122.863 103.881L128.067 104.265L131.332 100.193L132.576 105.26Z" fill="#FF5310"/>
<path d="M166.393 76.9868L171.273 78.8327L166.838 81.5828L166.591 86.7938L162.605 83.4275L157.573 84.8007L159.543 79.9698L156.68 75.6075L161.884 75.9908L165.149 71.9193L166.393 76.9868Z" fill="#FF5310"/>
<path d="M114.242 61.0795L119.122 62.9255L114.687 65.6755L114.438 70.8872L110.454 67.5203L105.42 68.8923L107.39 64.0614L104.529 59.7003L109.731 60.0824L112.996 56.0108L114.242 61.0795Z" fill="#FF5310"/>
<path d="M80.5872 132.601L84.066 133.918L80.9047 135.878L80.7287 139.592L77.8881 137.192L74.3 138.171L75.7051 134.728L73.6637 131.618L77.3722 131.891L79.7001 128.99L80.5872 132.601Z" fill="#FFDF24"/>
<path d="M100.735 142.651L106.219 137.794L105.46 137.507L104.574 133.895L102.246 136.796L98.538 136.525L100.578 139.634L99.1724 143.077L100.735 142.651Z" fill="#FFDF24"/>
<path d="M87.0537 113.204L82.6084 117.142L85.4335 119.53L85.6126 115.816L88.772 113.854L87.0537 113.204Z" fill="#FFDF24"/>
<path d="M60.8382 177.997L62.8698 176.197L60.992 175.486L60.1049 171.875L57.777 174.776L54.0673 174.504L56.1068 177.614L55.9848 177.911C59.3576 179.306 60.8364 177.996 60.8364 177.996L60.8382 177.997Z" fill="#FFDF24"/>
<path opacity="0.46" d="M86.3407 117.809C80.994 120.197 78.4682 126.244 74.3816 130.44C70.107 134.827 64.0407 137.223 60.0687 141.883C59.4214 142.642 58.8035 143.608 59.0578 144.573C59.3334 145.624 60.583 146.174 61.6592 146.026C62.7354 145.879 63.6649 145.221 64.5277 144.561C70.1768 140.233 75.0572 134.952 80.838 130.806C82.9867 129.263 85.2662 127.874 87.1701 126.042C88.6488 124.618 90.8473 122.018 90.7529 119.786C90.6511 117.398 88.1955 116.983 86.3413 117.812L86.3407 117.809Z" fill="white"/>
<path opacity="0.46" d="M56.4018 147.856C56.0674 147.067 55.2844 146.486 54.4328 146.394C53.58 146.305 52.6914 146.707 52.2009 147.408C51.9152 147.815 51.7619 148.299 51.6792 148.79C51.5321 149.661 51.6089 150.601 52.0714 151.356C52.8983 152.707 54.9765 153.065 56.208 152.071C57.4395 151.076 57.5244 148.969 56.3773 147.877L56.4049 147.855L56.4018 147.856Z" fill="white"/>
<path d="M119.845 121.733C122.368 120.686 125.219 120.248 127.853 120.973C130.487 121.698 132.839 123.709 133.543 126.347C133.935 127.819 133.809 129.39 133.417 130.859C133.085 132.096 132.537 133.322 131.57 134.163C130.604 135.003 129.152 135.374 128.004 134.806C126.769 134.193 126.203 132.662 126.357 131.293C126.513 129.922 127.252 128.692 128.062 127.578C130.147 124.707 133.019 122.179 136.507 121.533C139.267 121.023 142.129 121.744 144.669 122.937C148.066 124.53 151.148 127.098 152.614 130.551C153.958 133.716 153.802 137.481 152.202 140.524C150.6 143.568 147.584 145.827 144.215 146.51C142.534 146.852 140.454 146.636 139.606 145.146C139.101 144.26 139.187 143.147 139.491 142.173C140.286 139.641 142.364 137.733 144.505 136.164C146.669 134.577 149.029 133.187 151.633 132.537C154.235 131.89 157.119 132.047 159.429 133.408C162.141 135.005 163.763 138.119 163.998 141.258C164.233 144.397 163.208 147.537 161.59 150.238C159.753 153.302 157.137 155.895 154.055 157.706C153.9 157.796 153.734 157.888 153.554 157.882C153.313 157.874 153.116 157.695 152.943 157.524C152.026 156.622 151.107 155.722 150.19 154.82C154.267 154.103 157.597 150.826 159.127 146.978C159.903 145.031 160.275 142.882 159.901 140.822C159.526 138.761 158.344 136.799 156.532 135.746C154.719 134.691 152.427 134.632 150.451 135.339C148.475 136.044 146.805 137.455 145.531 139.12C145.197 139.557 144.872 140.097 145.028 140.624C145.224 141.283 146.055 141.512 146.742 141.457C148.642 141.309 150.275 139.791 150.853 137.976C151.431 136.16 151.064 134.134 150.162 132.455C149.259 130.776 147.864 129.411 146.355 128.247C143.767 126.247 140.642 124.73 137.369 124.795C134.098 124.862 130.737 126.826 129.762 129.951C129.678 130.223 129.61 130.516 129.695 130.786C129.88 131.387 130.756 131.54 131.268 131.172C131.781 130.804 131.967 130.123 131.967 129.49C131.967 127.963 131.055 126.522 129.797 125.659C128.538 124.795 126.972 124.459 125.445 124.47C123.652 124.483 121.831 124.975 120.398 126.054C118.966 127.133 117.965 128.836 117.929 130.63C117.016 129.656 113.544 125.663 113.544 125.663C113.544 125.663 117.968 122.516 119.845 121.733Z" fill="#FFDF24"/>
<path d="M121.166 101.319C123.768 100.488 126.226 98.976 127.767 96.7213C129.308 94.4667 129.8 91.4104 128.63 88.9413C127.978 87.5663 126.866 86.4498 125.616 85.5831C124.563 84.8532 123.352 84.2727 122.071 84.2576C120.791 84.2406 119.443 84.8994 118.936 86.0757C118.389 87.3407 118.947 88.8754 119.951 89.8202C120.955 90.7632 122.315 91.2252 123.654 91.5517C127.1 92.3928 130.928 92.4625 134.005 90.7001C136.44 89.3056 138.157 86.9026 139.323 84.3507C140.883 80.9396 141.573 76.9867 140.46 73.4044C139.44 70.1213 136.886 67.3497 133.695 66.0634C130.506 64.7783 126.743 65.0056 123.73 66.6642C122.228 67.4909 120.779 69.0003 121.097 70.6872C121.285 71.6888 122.07 72.4835 122.932 73.0284C125.176 74.4478 127.995 74.5573 130.644 74.3679C133.321 74.1777 136.02 73.7123 138.424 72.5238C140.828 71.3354 142.925 69.3493 143.808 66.8155C144.844 63.842 144.068 60.4203 142.215 57.8736C140.362 55.3269 137.552 53.5946 134.571 52.5827C131.187 51.4338 127.515 51.1492 123.996 51.761C123.819 51.7921 123.632 51.83 123.498 51.9501C123.318 52.1121 123.286 52.3781 123.263 52.618C123.146 53.8998 123.028 55.1803 122.913 56.4602C126.486 54.3691 131.145 54.7166 134.8 56.661C136.649 57.6457 138.324 59.0406 139.372 60.8564C140.419 62.6722 140.785 64.9319 140.085 66.9071C139.384 68.8842 137.673 70.4119 135.709 71.1512C133.746 71.8906 131.56 71.8949 129.511 71.4499C128.974 71.3318 128.377 71.1317 128.157 70.6277C127.882 69.9971 128.366 69.2862 128.924 68.8846C130.468 67.7689 132.697 67.8715 134.311 68.8817C135.927 69.893 136.957 71.6757 137.355 73.539C137.753 75.4024 137.572 77.3464 137.175 79.2107C136.494 82.4099 135.09 85.5902 132.554 87.6547C130.015 89.7199 126.183 90.3964 123.418 88.6432C123.178 88.4897 122.939 88.3102 122.827 88.0489C122.579 87.4705 123.147 86.7883 123.776 86.7374C124.404 86.6864 124.988 87.0875 125.395 87.5677C126.383 88.7332 126.619 90.4199 126.218 91.8939C125.817 93.3678 124.842 94.6352 123.668 95.6146C122.291 96.7642 120.584 97.5667 118.794 97.6722C117.003 97.7746 115.138 97.125 113.952 95.7795C113.887 97.1132 113.819 102.404 113.819 102.404C113.819 102.404 119.23 101.943 121.167 101.325L121.166 101.319Z" fill="#FFDF24"/>
<path d="M164.365 98.4713C165.68 100.865 167.633 102.988 170.142 104.068C172.652 105.147 175.745 105.044 177.943 103.425C179.168 102.521 180.051 101.217 180.661 99.8212C181.174 98.6486 181.514 97.347 181.284 96.0871C181.054 94.8272 180.15 93.6311 178.9 93.3568C177.553 93.0626 176.152 93.9049 175.419 95.0725C174.684 96.239 174.493 97.6606 174.429 99.0375C174.265 102.581 174.928 106.349 177.248 109.035C179.084 111.158 181.77 112.383 184.497 113.038C188.145 113.915 192.156 113.835 195.459 112.057C198.485 110.426 200.716 107.388 201.366 104.012C202.016 100.636 201.074 96.9866 198.869 94.3488C197.77 93.0332 196.012 91.9005 194.417 92.5344C193.469 92.9108 192.842 93.8339 192.471 94.7832C191.508 97.2567 191.941 100.046 192.633 102.608C193.332 105.198 194.306 107.761 195.932 109.892C197.56 112.024 199.91 113.701 202.564 114.084C205.682 114.531 208.892 113.112 211.036 110.809C213.181 108.503 214.342 105.412 214.764 102.291C215.244 98.7515 214.82 95.091 213.545 91.754C213.48 91.5873 213.409 91.4108 213.264 91.3032C213.071 91.1589 212.804 91.1768 212.563 91.2005C211.283 91.3299 210.005 91.4623 208.725 91.5917C211.461 94.6998 212.012 99.3378 210.805 103.297C210.193 105.3 209.144 107.211 207.563 108.587C205.983 109.963 203.834 110.755 201.76 110.447C199.685 110.138 197.859 108.751 196.756 106.966C195.654 105.181 195.232 103.037 195.277 100.941C195.289 100.391 195.374 99.7664 195.825 99.4537C196.391 99.0619 197.181 99.4031 197.683 99.8731C199.072 101.175 199.399 103.381 198.717 105.16C198.035 106.94 196.483 108.293 194.73 109.041C192.977 109.787 191.035 109.982 189.129 109.948C185.858 109.893 182.469 109.123 179.956 107.029C177.442 104.934 176.044 101.3 177.235 98.2515C177.339 97.9866 177.47 97.7158 177.706 97.5562C178.227 97.2014 179.005 97.6305 179.177 98.2363C179.347 98.844 179.066 99.4927 178.671 99.9851C177.718 101.177 176.106 101.733 174.584 101.622C173.06 101.51 171.629 100.794 170.443 99.8318C169.051 98.7006 167.935 97.1807 167.491 95.4415C167.046 93.704 167.327 91.7484 168.423 90.3252C167.101 90.515 161.897 91.4627 161.897 91.4627C161.897 91.4627 163.386 96.6844 164.364 98.4682L164.365 98.4713Z" fill="#FFDF24"/>
<path d="M147.08 103.595L146.783 103.402C146.594 103.269 146.386 103.192 146.161 103.17C145.949 103.112 145.737 103.112 145.518 103.166C145.297 103.204 145.102 103.292 144.932 103.431C144.735 103.542 144.576 103.696 144.457 103.895C144.392 104.031 144.328 104.167 144.264 104.301C144.176 104.584 144.163 104.87 144.222 105.158C144.27 105.293 144.317 105.43 144.365 105.564C144.502 105.835 144.697 106.054 144.951 106.219L145.248 106.412C145.437 106.546 145.645 106.623 145.87 106.644C146.082 106.702 146.294 106.703 146.513 106.648C146.734 106.611 146.929 106.523 147.099 106.384C147.296 106.273 147.455 106.119 147.574 105.92C147.638 105.784 147.703 105.648 147.767 105.512C147.856 105.229 147.871 104.944 147.81 104.654C147.762 104.52 147.715 104.383 147.667 104.248C147.53 103.978 147.335 103.759 147.081 103.594L147.08 103.595Z" fill="#47D658"/>
<path d="M113.292 115.221L113.677 114.63C113.811 114.44 113.888 114.232 113.909 114.007C113.967 113.795 113.969 113.581 113.913 113.364C113.876 113.144 113.788 112.948 113.649 112.778C113.538 112.581 113.384 112.422 113.185 112.303C113.049 112.239 112.913 112.174 112.777 112.11C112.494 112.022 112.209 112.006 111.919 112.068C111.785 112.115 111.648 112.162 111.513 112.21C111.243 112.348 111.024 112.542 110.858 112.796L110.474 113.388C110.34 113.577 110.263 113.785 110.242 114.01C110.185 114.22 110.183 114.434 110.238 114.653C110.275 114.874 110.363 115.069 110.502 115.239C110.613 115.436 110.767 115.595 110.966 115.714C111.102 115.779 111.238 115.843 111.374 115.908C111.657 115.996 111.943 116.009 112.231 115.95C112.366 115.902 112.503 115.855 112.637 115.807C112.908 115.67 113.127 115.475 113.292 115.221Z" fill="#47D658"/>
<path d="M109.067 88.0353L109.26 87.7384C109.394 87.5491 109.47 87.3414 109.492 87.1163C109.55 86.9044 109.551 86.69 109.496 86.4732C109.459 86.2525 109.369 86.059 109.231 85.887C109.12 85.69 108.966 85.5311 108.767 85.4123C108.631 85.3477 108.495 85.2832 108.359 85.2186C108.076 85.1304 107.79 85.117 107.502 85.1765C107.367 85.2243 107.231 85.2709 107.096 85.3188C106.826 85.4565 106.606 85.6511 106.441 85.905L106.248 86.2018C106.114 86.3911 106.037 86.5989 106.016 86.8239C105.958 87.0358 105.957 87.2502 106.012 87.467C106.049 87.6877 106.138 87.8812 106.276 88.0532C106.387 88.2503 106.542 88.4091 106.741 88.5279C106.877 88.5925 107.013 88.657 107.149 88.7216C107.431 88.8098 107.717 88.8232 108.006 88.7638C108.141 88.7159 108.277 88.6693 108.412 88.6214C108.682 88.4837 108.902 88.2891 109.067 88.0353Z" fill="#47D658"/>
<path d="M93.4647 77.045L93.6578 76.7482C93.7915 76.5589 93.8682 76.3511 93.8897 76.126C93.9479 75.9141 93.9492 75.6998 93.8936 75.483C93.8565 75.2623 93.7684 75.0669 93.6294 74.8967C93.5184 74.6997 93.3641 74.5409 93.1651 74.4221C93.0291 74.3575 92.8931 74.293 92.7571 74.2284C92.4744 74.1402 92.1883 74.1268 91.8999 74.1862C91.7652 74.2341 91.6286 74.2807 91.4938 74.3286C91.2236 74.4663 91.0041 74.6609 90.8389 74.9147L90.6459 75.2115C90.5121 75.4008 90.4354 75.6086 90.4139 75.8337C90.3558 76.0456 90.3545 76.2599 90.41 76.4767C90.4471 76.6974 90.5364 76.891 90.6743 77.063C90.7852 77.26 90.9396 77.4189 91.1386 77.5377C91.2746 77.6022 91.4106 77.6668 91.5466 77.7313C91.8292 77.8196 92.1141 77.8349 92.4037 77.7735C92.5385 77.7257 92.6751 77.679 92.8098 77.6312C93.08 77.4935 93.2996 77.2989 93.4647 77.045Z" fill="#47D658"/>
<path d="M116.901 52.4169C117.064 52.3824 117.227 52.3478 117.391 52.3132C117.611 52.2761 117.807 52.188 117.977 52.049C118.174 51.938 118.333 51.7837 118.452 51.5847C118.585 51.3954 118.662 51.1876 118.684 50.9625C118.741 50.7525 118.742 50.5381 118.688 50.3195C118.64 50.1848 118.593 50.0482 118.545 49.9134C118.407 49.6432 118.213 49.4237 117.959 49.2585C117.823 49.194 117.687 49.1294 117.551 49.0649C117.268 48.9767 116.982 48.9632 116.694 49.0227C116.531 49.0573 116.367 49.0919 116.204 49.1265C115.983 49.1636 115.788 49.2516 115.618 49.3907C115.421 49.5016 115.262 49.656 115.143 49.855C115.009 50.0443 114.933 50.252 114.911 50.4771C114.853 50.689 114.852 50.9034 114.907 51.1202C114.955 51.2549 115.002 51.3915 115.05 51.5262C115.187 51.7964 115.382 52.016 115.636 52.1811C115.772 52.2457 115.908 52.3102 116.044 52.3748C116.326 52.463 116.611 52.4783 116.901 52.4169Z" fill="#47D658"/>
<path d="M135.404 50.2927C135.764 50.527 136.247 50.6179 136.667 50.5273C137.071 50.4418 137.515 50.1595 137.727 49.8007C137.947 49.4257 138.073 48.9709 137.962 48.5373C137.849 48.1056 137.616 47.7253 137.235 47.4776C136.875 47.2433 136.392 47.1524 135.972 47.243C135.568 47.3285 135.124 47.6108 134.912 47.9696C134.692 48.3446 134.566 48.7994 134.677 49.2329C134.79 49.6647 135.023 50.045 135.404 50.2927Z" fill="#47D658"/>
<path d="M149.545 89.9293L149.93 89.3376C150.064 89.1483 150.141 88.9405 150.162 88.7154C150.22 88.5035 150.22 88.291 150.166 88.0724C150.129 87.8517 150.041 87.6562 149.902 87.4861C149.791 87.2891 149.637 87.1302 149.438 87.0114C149.302 86.9469 149.166 86.8823 149.03 86.8178C148.747 86.7295 148.462 86.7142 148.172 86.7756C148.038 86.8234 147.901 86.8701 147.766 86.9179C147.496 87.0556 147.277 87.2502 147.111 87.5041L146.726 88.0959C146.593 88.2851 146.516 88.4929 146.495 88.718C146.436 88.9299 146.435 89.1443 146.491 89.361C146.528 89.5818 146.616 89.7772 146.755 89.9473C146.866 90.1443 147.02 90.3032 147.219 90.422C147.355 90.4865 147.491 90.5511 147.627 90.6156C147.91 90.7039 148.195 90.7192 148.484 90.6578C148.619 90.61 148.756 90.5633 148.89 90.5155C149.161 90.3778 149.38 90.1832 149.545 89.9293Z" fill="#47D658"/>
<path d="M196.997 88.6205C196.963 88.4572 196.928 88.2939 196.894 88.1306C196.857 87.9099 196.767 87.7164 196.629 87.5444C196.519 87.3474 196.364 87.1885 196.165 87.0697C195.976 86.9359 195.768 86.8592 195.543 86.8377C195.331 86.7796 195.117 86.7783 194.9 86.8339C194.765 86.8817 194.629 86.9283 194.494 86.9762C194.224 87.1139 194.004 87.3085 193.839 87.5624C193.775 87.6984 193.71 87.8344 193.645 87.9704C193.557 88.253 193.542 88.5379 193.603 88.8276C193.638 88.9908 193.672 89.1541 193.707 89.3174C193.744 89.5381 193.832 89.7336 193.971 89.9037C194.082 90.1007 194.236 90.2596 194.435 90.3784C194.625 90.5121 194.833 90.5888 195.058 90.6104C195.27 90.6685 195.482 90.6686 195.701 90.6142C195.835 90.5664 195.972 90.5197 196.107 90.4719C196.377 90.3342 196.596 90.1396 196.762 89.8857C196.826 89.7497 196.891 89.6137 196.955 89.4777C197.043 89.195 197.059 88.9101 196.997 88.6205Z" fill="#47D658"/>
<path d="M161.057 41.5339C161.22 41.4993 161.384 41.4647 161.547 41.4301C161.768 41.393 161.963 41.305 162.133 41.1659C162.33 41.055 162.489 40.9006 162.608 40.7016C162.742 40.5123 162.818 40.3045 162.84 40.0795C162.898 39.8676 162.898 39.6551 162.844 39.4364C162.796 39.3017 162.749 39.1651 162.701 39.0304C162.564 38.7602 162.369 38.5406 162.115 38.3755C161.979 38.3109 161.843 38.2464 161.707 38.1818C161.425 38.0936 161.138 38.0802 160.85 38.1397C160.687 38.1742 160.524 38.2088 160.36 38.2434C160.14 38.2805 159.944 38.3686 159.774 38.5076C159.577 38.6186 159.418 38.7729 159.299 38.9719C159.166 39.1612 159.089 39.369 159.067 39.5941C159.009 39.806 159.009 40.0185 159.063 40.2371C159.111 40.3718 159.158 40.5084 159.206 40.6432C159.343 40.9134 159.538 41.1329 159.792 41.2981C159.928 41.3626 160.064 41.4272 160.2 41.4917C160.483 41.5799 160.768 41.5952 161.057 41.5339Z" fill="#47D658"/>
<path d="M198.549 55.5544C198.909 55.7887 199.392 55.8796 199.814 55.7902C200.218 55.7047 200.662 55.4224 200.874 55.0636C201.094 54.6886 201.22 54.2338 201.109 53.8003C200.997 53.3667 200.763 52.9882 200.38 52.7393C200.02 52.505 199.537 52.4141 199.117 52.5047C198.713 52.5902 198.269 52.8725 198.057 53.2313C197.837 53.6063 197.711 54.0611 197.822 54.4947C197.935 54.9264 198.168 55.3067 198.549 55.5544Z" fill="#47D658"/>
<path d="M189.213 130.796C189.573 131.03 190.056 131.121 190.476 131.03C190.88 130.945 191.324 130.663 191.537 130.302C191.757 129.927 191.883 129.472 191.772 129.039C191.661 128.605 191.426 128.227 191.045 127.979C190.685 127.744 190.202 127.654 189.782 127.744C189.378 127.83 188.935 128.11 188.722 128.471C188.502 128.846 188.375 129.302 188.486 129.736C188.597 130.17 188.832 130.548 189.213 130.796Z" fill="#47D658"/>
<path d="M144.313 155.622L144.698 155.031C144.832 154.841 144.908 154.634 144.93 154.409C144.988 154.197 144.989 153.982 144.934 153.765C144.897 153.545 144.808 153.349 144.669 153.179C144.558 152.982 144.404 152.823 144.205 152.705C144.069 152.64 143.933 152.575 143.797 152.511C143.514 152.423 143.23 152.407 142.94 152.469C142.805 152.517 142.669 152.563 142.534 152.611C142.264 152.749 142.044 152.943 141.879 153.197L141.494 153.789C141.36 153.978 141.284 154.186 141.262 154.411C141.205 154.621 141.204 154.836 141.258 155.054C141.295 155.275 141.383 155.47 141.522 155.64C141.633 155.837 141.788 155.996 141.987 156.115C142.123 156.18 142.259 156.244 142.395 156.309C142.677 156.397 142.964 156.41 143.252 156.351C143.387 156.303 143.523 156.256 143.658 156.209C143.928 156.071 144.148 155.876 144.313 155.622Z" fill="#47D658"/>
<path d="M174.034 139.882C174.394 140.117 174.877 140.208 175.297 140.117C175.717 140.026 176.145 139.749 176.357 139.39C176.577 139.015 176.703 138.561 176.592 138.127C176.48 137.693 176.246 137.315 175.865 137.067C175.505 136.833 175.022 136.742 174.602 136.833C174.198 136.918 173.754 137.2 173.542 137.559C173.322 137.934 173.195 138.391 173.307 138.823C173.42 139.254 173.653 139.635 174.034 139.882Z" fill="#47D658"/>
<path d="M100.074 105.258C100.435 105.493 100.918 105.584 101.338 105.493C101.741 105.408 102.185 105.125 102.397 104.766C102.617 104.392 102.743 103.937 102.632 103.503C102.52 103.071 102.286 102.691 101.905 102.443C101.545 102.209 101.062 102.118 100.642 102.209C100.239 102.294 99.7945 102.577 99.5824 102.935C99.3624 103.31 99.2366 103.765 99.3478 104.199C99.4601 104.63 99.6936 105.011 100.074 105.258Z" fill="#47D658"/>
<path d="M86.0884 56.3901C86.2517 56.3555 86.415 56.3209 86.5783 56.2863C86.799 56.2493 86.9944 56.1612 87.1645 56.0221C87.3615 55.9112 87.5204 55.7568 87.6392 55.5578C87.773 55.3685 87.8497 55.1608 87.8712 54.9357C87.9293 54.7238 87.9306 54.5094 87.875 54.2926C87.8272 54.1579 87.7806 54.0213 87.7327 53.8866C87.595 53.6164 87.4004 53.3968 87.1465 53.2317C87.0105 53.1671 86.8745 53.1026 86.7385 53.038C86.4559 52.9498 86.171 52.9345 85.8813 52.9959C85.718 53.0304 85.5548 53.065 85.3915 53.0996C85.1708 53.1367 84.9753 53.2248 84.8052 53.3638C84.6082 53.4748 84.4493 53.6291 84.3305 53.8281C84.1968 54.0174 84.1201 54.2252 84.0985 54.4503C84.0416 54.6603 84.0403 54.8747 84.0947 55.0933C84.1425 55.228 84.1892 55.3646 84.237 55.4994C84.3747 55.7696 84.5693 55.9891 84.8232 56.1543C84.9592 56.2188 85.0952 56.2834 85.2312 56.3479C85.5139 56.4361 85.7988 56.4514 86.0884 56.3901Z" fill="#47D658"/>
</g>
<defs>
<clipPath id="clip0_32_293">
<rect width="137.465" height="218.215" fill="white" transform="translate(119.332 0.0200195) rotate(33.0415)"/>
</clipPath>
</defs>
</svg>
